<mxfile host="app.diagrams.net" modified="2021-08-07T08:58:46.614Z" agent="5.0 (Windows NT 10.0; WOW64) AppleWebKit/537.36 (KHTML, like Gecko) Chrome/69.0.3947.100 Safari/537.36" etag="Ti0hl2k8BkOm3aK_f5Qr" version="14.9.3" type="github">
  <diagram id="Hg29x2jKguc3GUBoEkOg" name="Page-1">
    <mxGraphModel dx="301" dy="1369" grid="1" gridSize="10" guides="1" tooltips="1" connect="1" arrows="1" fold="1" page="1" pageScale="1" pageWidth="827" pageHeight="1169" math="0" shadow="0">
      <root>
        <mxCell id="0" />
        <mxCell id="1" parent="0" />
        <mxCell id="86h3Sp3e8O8lxsLSVH4I-10" style="edgeStyle=orthogonalEdgeStyle;rounded=0;orthogonalLoop=1;jettySize=auto;html=1;exitX=0;exitY=0;exitDx=30;exitDy=45;exitPerimeter=0;" parent="1" source="86h3Sp3e8O8lxsLSVH4I-1" edge="1">
          <mxGeometry relative="1" as="geometry">
            <mxPoint x="170" y="135" as="targetPoint" />
          </mxGeometry>
        </mxCell>
        <mxCell id="86h3Sp3e8O8lxsLSVH4I-1" value="" style="shape=cube;whiteSpace=wrap;html=1;boundedLbl=1;backgroundOutline=1;darkOpacity=0.05;darkOpacity2=0.1;" parent="1" vertex="1">
          <mxGeometry x="80" y="90" width="30" height="70" as="geometry" />
        </mxCell>
        <mxCell id="86h3Sp3e8O8lxsLSVH4I-9" style="edgeStyle=orthogonalEdgeStyle;rounded=0;orthogonalLoop=1;jettySize=auto;html=1;exitX=0;exitY=0;exitDx=30;exitDy=45;exitPerimeter=0;entryX=0;entryY=0.5;entryDx=0;entryDy=0;" parent="1" source="86h3Sp3e8O8lxsLSVH4I-2" edge="1">
          <mxGeometry relative="1" as="geometry">
            <mxPoint x="170" y="532.9999999999999" as="targetPoint" />
          </mxGeometry>
        </mxCell>
        <mxCell id="86h3Sp3e8O8lxsLSVH4I-2" value="" style="shape=cube;whiteSpace=wrap;html=1;boundedLbl=1;backgroundOutline=1;darkOpacity=0.05;darkOpacity2=0.1;" parent="1" vertex="1">
          <mxGeometry x="80" y="488" width="30" height="70" as="geometry" />
        </mxCell>
        <mxCell id="86h3Sp3e8O8lxsLSVH4I-12" value="" style="endArrow=classic;html=1;" parent="1" target="86h3Sp3e8O8lxsLSVH4I-20" edge="1">
          <mxGeometry width="50" height="50" relative="1" as="geometry">
            <mxPoint x="140" y="60" as="sourcePoint" />
            <mxPoint x="170" y="60" as="targetPoint" />
          </mxGeometry>
        </mxCell>
        <mxCell id="86h3Sp3e8O8lxsLSVH4I-13" value="" style="endArrow=classic;html=1;entryX=0;entryY=0.5;entryDx=0;entryDy=0;" parent="1" edge="1">
          <mxGeometry width="50" height="50" relative="1" as="geometry">
            <mxPoint x="140" y="608" as="sourcePoint" />
            <mxPoint x="170" y="607.9999999999999" as="targetPoint" />
          </mxGeometry>
        </mxCell>
        <mxCell id="86h3Sp3e8O8lxsLSVH4I-14" value="" style="endArrow=classic;html=1;entryX=0;entryY=0.5;entryDx=0;entryDy=0;" parent="1" edge="1">
          <mxGeometry width="50" height="50" relative="1" as="geometry">
            <mxPoint x="140" y="210" as="sourcePoint" />
            <mxPoint x="170" y="210.0000000000001" as="targetPoint" />
          </mxGeometry>
        </mxCell>
        <mxCell id="86h3Sp3e8O8lxsLSVH4I-15" value="" style="endArrow=classic;html=1;entryX=0;entryY=0.5;entryDx=0;entryDy=0;" parent="1" edge="1">
          <mxGeometry width="50" height="50" relative="1" as="geometry">
            <mxPoint x="140" y="457.65999999999985" as="sourcePoint" />
            <mxPoint x="170" y="457.6600000000001" as="targetPoint" />
          </mxGeometry>
        </mxCell>
        <mxCell id="86h3Sp3e8O8lxsLSVH4I-16" value="" style="endArrow=classic;html=1;entryX=0.5;entryY=0;entryDx=0;entryDy=0;" parent="1" edge="1" target="86h3Sp3e8O8lxsLSVH4I-18">
          <mxGeometry width="50" height="50" relative="1" as="geometry">
            <mxPoint x="140" y="-40" as="sourcePoint" />
            <mxPoint x="140" y="270" as="targetPoint" />
          </mxGeometry>
        </mxCell>
        <mxCell id="86h3Sp3e8O8lxsLSVH4I-17" value="" style="endArrow=classic;html=1;entryX=0.5;entryY=1;entryDx=0;entryDy=0;" parent="1" edge="1" target="86h3Sp3e8O8lxsLSVH4I-18">
          <mxGeometry width="50" height="50" relative="1" as="geometry">
            <mxPoint x="140" y="697" as="sourcePoint" />
            <mxPoint x="139.58" y="426" as="targetPoint" />
          </mxGeometry>
        </mxCell>
        <mxCell id="6AizW1ExCWK7U08VrBVz-80" style="edgeStyle=orthogonalEdgeStyle;rounded=0;orthogonalLoop=1;jettySize=auto;html=1;exitX=1;exitY=0.5;exitDx=0;exitDy=0;" edge="1" parent="1" source="86h3Sp3e8O8lxsLSVH4I-18">
          <mxGeometry relative="1" as="geometry">
            <mxPoint x="170" y="364" as="targetPoint" />
          </mxGeometry>
        </mxCell>
        <mxCell id="86h3Sp3e8O8lxsLSVH4I-18" value="C" style="ellipse;whiteSpace=wrap;html=1;aspect=fixed;" parent="1" vertex="1">
          <mxGeometry x="130" y="354" width="20" height="20" as="geometry" />
        </mxCell>
        <mxCell id="86h3Sp3e8O8lxsLSVH4I-67" style="edgeStyle=orthogonalEdgeStyle;rounded=0;orthogonalLoop=1;jettySize=auto;html=1;exitX=1;exitY=0.5;exitDx=0;exitDy=0;entryX=0;entryY=0.5;entryDx=0;entryDy=0;" parent="1" source="86h3Sp3e8O8lxsLSVH4I-19" target="86h3Sp3e8O8lxsLSVH4I-63" edge="1">
          <mxGeometry relative="1" as="geometry" />
        </mxCell>
        <mxCell id="86h3Sp3e8O8lxsLSVH4I-19" value="x" style="ellipse;whiteSpace=wrap;html=1;aspect=fixed;" parent="1" vertex="1">
          <mxGeometry x="460" y="185" width="15" height="15" as="geometry" />
        </mxCell>
        <mxCell id="86h3Sp3e8O8lxsLSVH4I-31" style="edgeStyle=orthogonalEdgeStyle;rounded=0;orthogonalLoop=1;jettySize=auto;html=1;exitX=1;exitY=0.5;exitDx=0;exitDy=0;entryX=0;entryY=0.5;entryDx=0;entryDy=0;" parent="1" source="86h3Sp3e8O8lxsLSVH4I-20" target="86h3Sp3e8O8lxsLSVH4I-27" edge="1">
          <mxGeometry relative="1" as="geometry" />
        </mxCell>
        <mxCell id="86h3Sp3e8O8lxsLSVH4I-20" value="" style="rounded=0;whiteSpace=wrap;html=1;" parent="1" vertex="1">
          <mxGeometry x="170" y="40" width="10" height="40" as="geometry" />
        </mxCell>
        <mxCell id="86h3Sp3e8O8lxsLSVH4I-39" style="edgeStyle=orthogonalEdgeStyle;rounded=0;orthogonalLoop=1;jettySize=auto;html=1;exitX=1;exitY=0.5;exitDx=0;exitDy=0;entryX=0;entryY=0.5;entryDx=0;entryDy=0;" parent="1" source="86h3Sp3e8O8lxsLSVH4I-22" target="86h3Sp3e8O8lxsLSVH4I-32" edge="1">
          <mxGeometry relative="1" as="geometry" />
        </mxCell>
        <mxCell id="86h3Sp3e8O8lxsLSVH4I-22" value="" style="rounded=0;whiteSpace=wrap;html=1;" parent="1" vertex="1">
          <mxGeometry x="170" y="115" width="10" height="40" as="geometry" />
        </mxCell>
        <mxCell id="86h3Sp3e8O8lxsLSVH4I-38" style="edgeStyle=orthogonalEdgeStyle;rounded=0;orthogonalLoop=1;jettySize=auto;html=1;exitX=1;exitY=0.5;exitDx=0;exitDy=0;entryX=0;entryY=0.5;entryDx=0;entryDy=0;" parent="1" source="86h3Sp3e8O8lxsLSVH4I-23" target="86h3Sp3e8O8lxsLSVH4I-35" edge="1">
          <mxGeometry relative="1" as="geometry" />
        </mxCell>
        <mxCell id="86h3Sp3e8O8lxsLSVH4I-23" value="" style="rounded=0;whiteSpace=wrap;html=1;" parent="1" vertex="1">
          <mxGeometry x="170" y="190" width="10" height="40" as="geometry" />
        </mxCell>
        <mxCell id="86h3Sp3e8O8lxsLSVH4I-53" style="edgeStyle=orthogonalEdgeStyle;rounded=0;orthogonalLoop=1;jettySize=auto;html=1;exitX=1;exitY=0.5;exitDx=0;exitDy=0;entryX=0;entryY=0.5;entryDx=0;entryDy=0;" parent="1" source="86h3Sp3e8O8lxsLSVH4I-24" target="86h3Sp3e8O8lxsLSVH4I-43" edge="1">
          <mxGeometry relative="1" as="geometry" />
        </mxCell>
        <mxCell id="86h3Sp3e8O8lxsLSVH4I-24" value="" style="rounded=0;whiteSpace=wrap;html=1;" parent="1" vertex="1">
          <mxGeometry x="170" y="438" width="10" height="40" as="geometry" />
        </mxCell>
        <mxCell id="86h3Sp3e8O8lxsLSVH4I-54" style="edgeStyle=orthogonalEdgeStyle;rounded=0;orthogonalLoop=1;jettySize=auto;html=1;exitX=1;exitY=0.5;exitDx=0;exitDy=0;entryX=0;entryY=0.5;entryDx=0;entryDy=0;" parent="1" source="86h3Sp3e8O8lxsLSVH4I-25" target="86h3Sp3e8O8lxsLSVH4I-46" edge="1">
          <mxGeometry relative="1" as="geometry" />
        </mxCell>
        <mxCell id="86h3Sp3e8O8lxsLSVH4I-25" value="" style="rounded=0;whiteSpace=wrap;html=1;" parent="1" vertex="1">
          <mxGeometry x="170" y="513" width="10" height="40" as="geometry" />
        </mxCell>
        <mxCell id="86h3Sp3e8O8lxsLSVH4I-55" style="edgeStyle=orthogonalEdgeStyle;rounded=0;orthogonalLoop=1;jettySize=auto;html=1;exitX=1;exitY=0.5;exitDx=0;exitDy=0;entryX=0;entryY=0.5;entryDx=0;entryDy=0;" parent="1" source="86h3Sp3e8O8lxsLSVH4I-26" target="86h3Sp3e8O8lxsLSVH4I-49" edge="1">
          <mxGeometry relative="1" as="geometry" />
        </mxCell>
        <mxCell id="86h3Sp3e8O8lxsLSVH4I-26" value="" style="rounded=0;whiteSpace=wrap;html=1;" parent="1" vertex="1">
          <mxGeometry x="170" y="588" width="10" height="40" as="geometry" />
        </mxCell>
        <mxCell id="86h3Sp3e8O8lxsLSVH4I-27" value="" style="whiteSpace=wrap;html=1;aspect=fixed;" parent="1" vertex="1">
          <mxGeometry x="250" y="40" width="40" height="40" as="geometry" />
        </mxCell>
        <mxCell id="86h3Sp3e8O8lxsLSVH4I-29" value="" style="whiteSpace=wrap;html=1;aspect=fixed;" parent="1" vertex="1">
          <mxGeometry x="260" y="50" width="40" height="40" as="geometry" />
        </mxCell>
        <mxCell id="86h3Sp3e8O8lxsLSVH4I-30" value="" style="whiteSpace=wrap;html=1;aspect=fixed;" parent="1" vertex="1">
          <mxGeometry x="270" y="60" width="40" height="40" as="geometry" />
        </mxCell>
        <mxCell id="86h3Sp3e8O8lxsLSVH4I-32" value="" style="whiteSpace=wrap;html=1;aspect=fixed;" parent="1" vertex="1">
          <mxGeometry x="250" y="115" width="40" height="40" as="geometry" />
        </mxCell>
        <mxCell id="86h3Sp3e8O8lxsLSVH4I-33" value="" style="whiteSpace=wrap;html=1;aspect=fixed;" parent="1" vertex="1">
          <mxGeometry x="260" y="125" width="40" height="40" as="geometry" />
        </mxCell>
        <mxCell id="86h3Sp3e8O8lxsLSVH4I-41" style="edgeStyle=orthogonalEdgeStyle;rounded=0;orthogonalLoop=1;jettySize=auto;html=1;exitX=1;exitY=0.5;exitDx=0;exitDy=0;entryX=0.5;entryY=0;entryDx=0;entryDy=0;" parent="1" source="86h3Sp3e8O8lxsLSVH4I-34" target="86h3Sp3e8O8lxsLSVH4I-19" edge="1">
          <mxGeometry relative="1" as="geometry">
            <Array as="points">
              <mxPoint x="310" y="150" />
              <mxPoint x="468" y="150" />
            </Array>
          </mxGeometry>
        </mxCell>
        <mxCell id="86h3Sp3e8O8lxsLSVH4I-34" value="" style="whiteSpace=wrap;html=1;aspect=fixed;" parent="1" vertex="1">
          <mxGeometry x="270" y="135" width="40" height="40" as="geometry" />
        </mxCell>
        <mxCell id="86h3Sp3e8O8lxsLSVH4I-35" value="" style="whiteSpace=wrap;html=1;aspect=fixed;" parent="1" vertex="1">
          <mxGeometry x="250" y="190" width="40" height="40" as="geometry" />
        </mxCell>
        <mxCell id="86h3Sp3e8O8lxsLSVH4I-36" value="" style="whiteSpace=wrap;html=1;aspect=fixed;" parent="1" vertex="1">
          <mxGeometry x="260" y="200" width="40" height="40" as="geometry" />
        </mxCell>
        <mxCell id="86h3Sp3e8O8lxsLSVH4I-37" value="" style="whiteSpace=wrap;html=1;aspect=fixed;" parent="1" vertex="1">
          <mxGeometry x="270" y="210" width="40" height="40" as="geometry" />
        </mxCell>
        <mxCell id="86h3Sp3e8O8lxsLSVH4I-43" value="" style="whiteSpace=wrap;html=1;aspect=fixed;" parent="1" vertex="1">
          <mxGeometry x="249" y="438" width="40" height="40" as="geometry" />
        </mxCell>
        <mxCell id="86h3Sp3e8O8lxsLSVH4I-44" value="" style="whiteSpace=wrap;html=1;aspect=fixed;" parent="1" vertex="1">
          <mxGeometry x="259" y="447" width="40" height="40" as="geometry" />
        </mxCell>
        <mxCell id="86h3Sp3e8O8lxsLSVH4I-45" value="" style="whiteSpace=wrap;html=1;aspect=fixed;" parent="1" vertex="1">
          <mxGeometry x="269" y="457" width="40" height="40" as="geometry" />
        </mxCell>
        <mxCell id="86h3Sp3e8O8lxsLSVH4I-46" value="" style="whiteSpace=wrap;html=1;aspect=fixed;" parent="1" vertex="1">
          <mxGeometry x="250" y="513" width="40" height="40" as="geometry" />
        </mxCell>
        <mxCell id="86h3Sp3e8O8lxsLSVH4I-47" value="" style="whiteSpace=wrap;html=1;aspect=fixed;" parent="1" vertex="1">
          <mxGeometry x="260" y="522" width="40" height="40" as="geometry" />
        </mxCell>
        <mxCell id="86h3Sp3e8O8lxsLSVH4I-58" style="edgeStyle=orthogonalEdgeStyle;rounded=0;orthogonalLoop=1;jettySize=auto;html=1;exitX=1;exitY=0.5;exitDx=0;exitDy=0;entryX=0.5;entryY=1;entryDx=0;entryDy=0;" parent="1" source="86h3Sp3e8O8lxsLSVH4I-48" target="86h3Sp3e8O8lxsLSVH4I-56" edge="1">
          <mxGeometry relative="1" as="geometry" />
        </mxCell>
        <mxCell id="86h3Sp3e8O8lxsLSVH4I-48" value="" style="whiteSpace=wrap;html=1;aspect=fixed;" parent="1" vertex="1">
          <mxGeometry x="270" y="532" width="40" height="40" as="geometry" />
        </mxCell>
        <mxCell id="86h3Sp3e8O8lxsLSVH4I-49" value="" style="whiteSpace=wrap;html=1;aspect=fixed;" parent="1" vertex="1">
          <mxGeometry x="250" y="588" width="40" height="40" as="geometry" />
        </mxCell>
        <mxCell id="86h3Sp3e8O8lxsLSVH4I-50" value="" style="whiteSpace=wrap;html=1;aspect=fixed;" parent="1" vertex="1">
          <mxGeometry x="260" y="597" width="40" height="40" as="geometry" />
        </mxCell>
        <mxCell id="86h3Sp3e8O8lxsLSVH4I-103" style="edgeStyle=orthogonalEdgeStyle;rounded=0;orthogonalLoop=1;jettySize=auto;html=1;entryX=0.5;entryY=1;entryDx=0;entryDy=0;exitX=1.067;exitY=0.409;exitDx=0;exitDy=0;exitPerimeter=0;" parent="1" source="6AizW1ExCWK7U08VrBVz-213" target="86h3Sp3e8O8lxsLSVH4I-102" edge="1">
          <mxGeometry relative="1" as="geometry">
            <mxPoint x="490" y="629" as="sourcePoint" />
          </mxGeometry>
        </mxCell>
        <mxCell id="86h3Sp3e8O8lxsLSVH4I-51" value="" style="whiteSpace=wrap;html=1;aspect=fixed;" parent="1" vertex="1">
          <mxGeometry x="270" y="607" width="40" height="40" as="geometry" />
        </mxCell>
        <mxCell id="86h3Sp3e8O8lxsLSVH4I-68" style="edgeStyle=orthogonalEdgeStyle;rounded=0;orthogonalLoop=1;jettySize=auto;html=1;exitX=1;exitY=0.5;exitDx=0;exitDy=0;entryX=0;entryY=0.5;entryDx=0;entryDy=0;" parent="1" source="86h3Sp3e8O8lxsLSVH4I-56" target="86h3Sp3e8O8lxsLSVH4I-65" edge="1">
          <mxGeometry relative="1" as="geometry" />
        </mxCell>
        <mxCell id="86h3Sp3e8O8lxsLSVH4I-56" value="x" style="ellipse;whiteSpace=wrap;html=1;aspect=fixed;" parent="1" vertex="1">
          <mxGeometry x="460" y="498" width="15" height="15" as="geometry" />
        </mxCell>
        <mxCell id="86h3Sp3e8O8lxsLSVH4I-62" value="softmax" style="text;html=1;resizable=0;autosize=1;align=center;verticalAlign=middle;points=[];fillColor=none;strokeColor=none;rounded=0;" parent="1" vertex="1">
          <mxGeometry x="475" y="170" width="60" height="20" as="geometry" />
        </mxCell>
        <mxCell id="86h3Sp3e8O8lxsLSVH4I-96" style="edgeStyle=orthogonalEdgeStyle;rounded=0;orthogonalLoop=1;jettySize=auto;html=1;exitX=1;exitY=0.5;exitDx=0;exitDy=0;entryX=0.5;entryY=0;entryDx=0;entryDy=0;" parent="1" source="86h3Sp3e8O8lxsLSVH4I-63" target="86h3Sp3e8O8lxsLSVH4I-91" edge="1">
          <mxGeometry relative="1" as="geometry" />
        </mxCell>
        <mxCell id="86h3Sp3e8O8lxsLSVH4I-63" value="AM" style="whiteSpace=wrap;html=1;aspect=fixed;" parent="1" vertex="1">
          <mxGeometry x="540" y="173" width="40" height="40" as="geometry" />
        </mxCell>
        <mxCell id="6AizW1ExCWK7U08VrBVz-78" style="edgeStyle=orthogonalEdgeStyle;rounded=0;orthogonalLoop=1;jettySize=auto;html=1;exitX=1;exitY=0.5;exitDx=0;exitDy=0;entryX=0.5;entryY=1;entryDx=0;entryDy=0;" edge="1" parent="1" source="86h3Sp3e8O8lxsLSVH4I-65" target="86h3Sp3e8O8lxsLSVH4I-97">
          <mxGeometry relative="1" as="geometry" />
        </mxCell>
        <mxCell id="86h3Sp3e8O8lxsLSVH4I-65" value="AM" style="whiteSpace=wrap;html=1;aspect=fixed;" parent="1" vertex="1">
          <mxGeometry x="540" y="486" width="40" height="40" as="geometry" />
        </mxCell>
        <mxCell id="86h3Sp3e8O8lxsLSVH4I-66" value="softmax" style="text;html=1;resizable=0;autosize=1;align=center;verticalAlign=middle;points=[];fillColor=none;strokeColor=none;rounded=0;" parent="1" vertex="1">
          <mxGeometry x="475" y="486" width="60" height="20" as="geometry" />
        </mxCell>
        <mxCell id="86h3Sp3e8O8lxsLSVH4I-88" style="edgeStyle=orthogonalEdgeStyle;rounded=0;orthogonalLoop=1;jettySize=auto;html=1;exitX=1;exitY=0.25;exitDx=0;exitDy=0;entryX=0;entryY=0.5;entryDx=0;entryDy=0;" parent="1" source="86h3Sp3e8O8lxsLSVH4I-69" target="86h3Sp3e8O8lxsLSVH4I-84" edge="1">
          <mxGeometry relative="1" as="geometry">
            <mxPoint x="370" y="344.83333333333337" as="targetPoint" />
          </mxGeometry>
        </mxCell>
        <mxCell id="86h3Sp3e8O8lxsLSVH4I-69" value="" style="whiteSpace=wrap;html=1;aspect=fixed;" parent="1" vertex="1">
          <mxGeometry x="171" y="335" width="40" height="40" as="geometry" />
        </mxCell>
        <mxCell id="86h3Sp3e8O8lxsLSVH4I-79" style="edgeStyle=orthogonalEdgeStyle;rounded=0;orthogonalLoop=1;jettySize=auto;html=1;exitX=1;exitY=0.5;exitDx=0;exitDy=0;" parent="1" source="86h3Sp3e8O8lxsLSVH4I-71" target="86h3Sp3e8O8lxsLSVH4I-72" edge="1">
          <mxGeometry relative="1" as="geometry" />
        </mxCell>
        <mxCell id="86h3Sp3e8O8lxsLSVH4I-71" value="" style="whiteSpace=wrap;html=1;aspect=fixed;" parent="1" vertex="1">
          <mxGeometry x="181" y="354" width="40" height="40" as="geometry" />
        </mxCell>
        <mxCell id="86h3Sp3e8O8lxsLSVH4I-72" value="x" style="ellipse;whiteSpace=wrap;html=1;aspect=fixed;" parent="1" vertex="1">
          <mxGeometry x="475" y="366.5" width="15" height="15" as="geometry" />
        </mxCell>
        <mxCell id="86h3Sp3e8O8lxsLSVH4I-122" style="edgeStyle=orthogonalEdgeStyle;rounded=0;orthogonalLoop=1;jettySize=auto;html=1;exitX=1;exitY=0.5;exitDx=0;exitDy=0;entryX=0;entryY=0.5;entryDx=0;entryDy=0;" parent="1" source="86h3Sp3e8O8lxsLSVH4I-76" target="86h3Sp3e8O8lxsLSVH4I-121" edge="1">
          <mxGeometry relative="1" as="geometry" />
        </mxCell>
        <mxCell id="86h3Sp3e8O8lxsLSVH4I-76" value="x" style="ellipse;whiteSpace=wrap;html=1;aspect=fixed;" parent="1" vertex="1">
          <mxGeometry x="652.5" y="190" width="15" height="15" as="geometry" />
        </mxCell>
        <mxCell id="86h3Sp3e8O8lxsLSVH4I-84" value="x" style="ellipse;whiteSpace=wrap;html=1;aspect=fixed;" parent="1" vertex="1">
          <mxGeometry x="475" y="337" width="15" height="15" as="geometry" />
        </mxCell>
        <mxCell id="86h3Sp3e8O8lxsLSVH4I-101" style="edgeStyle=orthogonalEdgeStyle;rounded=0;orthogonalLoop=1;jettySize=auto;html=1;exitX=1;exitY=0.5;exitDx=0;exitDy=0;entryX=0.5;entryY=1;entryDx=0;entryDy=0;" parent="1" source="86h3Sp3e8O8lxsLSVH4I-91" target="86h3Sp3e8O8lxsLSVH4I-76" edge="1">
          <mxGeometry relative="1" as="geometry" />
        </mxCell>
        <mxCell id="86h3Sp3e8O8lxsLSVH4I-91" value="+" style="ellipse;whiteSpace=wrap;html=1;aspect=fixed;" parent="1" vertex="1">
          <mxGeometry x="597" y="335" width="15" height="15" as="geometry" />
        </mxCell>
        <mxCell id="86h3Sp3e8O8lxsLSVH4I-94" value="" style="endArrow=classic;html=1;entryX=0.5;entryY=0;entryDx=0;entryDy=0;" parent="1" target="86h3Sp3e8O8lxsLSVH4I-84" edge="1">
          <mxGeometry width="50" height="50" relative="1" as="geometry">
            <mxPoint x="483" y="194" as="sourcePoint" />
            <mxPoint x="460" y="240" as="targetPoint" />
          </mxGeometry>
        </mxCell>
        <mxCell id="6AizW1ExCWK7U08VrBVz-79" style="edgeStyle=orthogonalEdgeStyle;rounded=0;orthogonalLoop=1;jettySize=auto;html=1;exitX=1;exitY=0;exitDx=0;exitDy=0;entryX=0.5;entryY=0;entryDx=0;entryDy=0;" edge="1" parent="1" source="86h3Sp3e8O8lxsLSVH4I-97" target="86h3Sp3e8O8lxsLSVH4I-102">
          <mxGeometry relative="1" as="geometry" />
        </mxCell>
        <mxCell id="86h3Sp3e8O8lxsLSVH4I-97" value="+" style="ellipse;whiteSpace=wrap;html=1;aspect=fixed;" parent="1" vertex="1">
          <mxGeometry x="600" y="366.5" width="15" height="15" as="geometry" />
        </mxCell>
        <mxCell id="86h3Sp3e8O8lxsLSVH4I-99" value="" style="endArrow=classic;html=1;entryX=0;entryY=0.5;entryDx=0;entryDy=0;" parent="1" target="86h3Sp3e8O8lxsLSVH4I-91" edge="1">
          <mxGeometry width="50" height="50" relative="1" as="geometry">
            <mxPoint x="490" y="375" as="sourcePoint" />
            <mxPoint x="540" y="325" as="targetPoint" />
          </mxGeometry>
        </mxCell>
        <mxCell id="86h3Sp3e8O8lxsLSVH4I-100" value="" style="endArrow=classic;html=1;entryX=0;entryY=0.5;entryDx=0;entryDy=0;" parent="1" target="86h3Sp3e8O8lxsLSVH4I-97" edge="1">
          <mxGeometry width="50" height="50" relative="1" as="geometry">
            <mxPoint x="490" y="344" as="sourcePoint" />
            <mxPoint x="540" y="294" as="targetPoint" />
          </mxGeometry>
        </mxCell>
        <mxCell id="86h3Sp3e8O8lxsLSVH4I-118" style="edgeStyle=orthogonalEdgeStyle;rounded=0;orthogonalLoop=1;jettySize=auto;html=1;exitX=1;exitY=0.5;exitDx=0;exitDy=0;" parent="1" source="86h3Sp3e8O8lxsLSVH4I-102" edge="1">
          <mxGeometry relative="1" as="geometry">
            <mxPoint x="690" y="506" as="targetPoint" />
          </mxGeometry>
        </mxCell>
        <mxCell id="86h3Sp3e8O8lxsLSVH4I-102" value="x" style="ellipse;whiteSpace=wrap;html=1;aspect=fixed;" parent="1" vertex="1">
          <mxGeometry x="652.5" y="498" width="15" height="15" as="geometry" />
        </mxCell>
        <mxCell id="86h3Sp3e8O8lxsLSVH4I-107" value="" style="endArrow=none;html=1;" parent="1" edge="1">
          <mxGeometry width="50" height="50" relative="1" as="geometry">
            <mxPoint x="140" y="-40" as="sourcePoint" />
            <mxPoint x="680" y="-40" as="targetPoint" />
          </mxGeometry>
        </mxCell>
        <mxCell id="86h3Sp3e8O8lxsLSVH4I-125" style="edgeStyle=orthogonalEdgeStyle;rounded=0;orthogonalLoop=1;jettySize=auto;html=1;exitX=1;exitY=0.5;exitDx=0;exitDy=0;" parent="1" source="86h3Sp3e8O8lxsLSVH4I-108" edge="1">
          <mxGeometry relative="1" as="geometry">
            <mxPoint x="810" y="197.5" as="targetPoint" />
          </mxGeometry>
        </mxCell>
        <mxCell id="86h3Sp3e8O8lxsLSVH4I-108" value="+" style="ellipse;whiteSpace=wrap;html=1;aspect=fixed;" parent="1" vertex="1">
          <mxGeometry x="772" y="190" width="15" height="15" as="geometry" />
        </mxCell>
        <mxCell id="86h3Sp3e8O8lxsLSVH4I-109" value="" style="endArrow=classic;html=1;entryX=0.5;entryY=0;entryDx=0;entryDy=0;" parent="1" edge="1">
          <mxGeometry width="50" height="50" relative="1" as="geometry">
            <mxPoint x="680" y="-40" as="sourcePoint" />
            <mxPoint x="679.5" y="190" as="targetPoint" />
          </mxGeometry>
        </mxCell>
        <mxCell id="86h3Sp3e8O8lxsLSVH4I-127" style="edgeStyle=orthogonalEdgeStyle;rounded=0;orthogonalLoop=1;jettySize=auto;html=1;exitX=1;exitY=0.5;exitDx=0;exitDy=0;" parent="1" source="86h3Sp3e8O8lxsLSVH4I-111" edge="1">
          <mxGeometry relative="1" as="geometry">
            <mxPoint x="810" y="507.16666666666674" as="targetPoint" />
          </mxGeometry>
        </mxCell>
        <mxCell id="86h3Sp3e8O8lxsLSVH4I-111" value="+" style="ellipse;whiteSpace=wrap;html=1;aspect=fixed;" parent="1" vertex="1">
          <mxGeometry x="770" y="499.5" width="15" height="15" as="geometry" />
        </mxCell>
        <mxCell id="86h3Sp3e8O8lxsLSVH4I-114" value="" style="endArrow=none;html=1;" parent="1" edge="1">
          <mxGeometry width="50" height="50" relative="1" as="geometry">
            <mxPoint x="144" y="767" as="sourcePoint" />
            <mxPoint x="684" y="767" as="targetPoint" />
          </mxGeometry>
        </mxCell>
        <mxCell id="86h3Sp3e8O8lxsLSVH4I-120" style="edgeStyle=orthogonalEdgeStyle;rounded=0;orthogonalLoop=1;jettySize=auto;html=1;exitX=1;exitY=0.5;exitDx=0;exitDy=0;entryX=0;entryY=0.5;entryDx=0;entryDy=0;" parent="1" source="86h3Sp3e8O8lxsLSVH4I-116" target="86h3Sp3e8O8lxsLSVH4I-111" edge="1">
          <mxGeometry relative="1" as="geometry" />
        </mxCell>
        <mxCell id="86h3Sp3e8O8lxsLSVH4I-116" value="" style="whiteSpace=wrap;html=1;aspect=fixed;" parent="1" vertex="1">
          <mxGeometry x="689.5" y="487" width="40" height="40" as="geometry" />
        </mxCell>
        <mxCell id="86h3Sp3e8O8lxsLSVH4I-119" value="" style="endArrow=classic;html=1;entryX=0.5;entryY=1;entryDx=0;entryDy=0;" parent="1" edge="1">
          <mxGeometry width="50" height="50" relative="1" as="geometry">
            <mxPoint x="680" y="699" as="sourcePoint" />
            <mxPoint x="679.5" y="515.5" as="targetPoint" />
          </mxGeometry>
        </mxCell>
        <mxCell id="86h3Sp3e8O8lxsLSVH4I-124" style="edgeStyle=orthogonalEdgeStyle;rounded=0;orthogonalLoop=1;jettySize=auto;html=1;exitX=1;exitY=0.5;exitDx=0;exitDy=0;" parent="1" source="86h3Sp3e8O8lxsLSVH4I-121" edge="1">
          <mxGeometry relative="1" as="geometry">
            <mxPoint x="770" y="197.5" as="targetPoint" />
          </mxGeometry>
        </mxCell>
        <mxCell id="86h3Sp3e8O8lxsLSVH4I-121" value="" style="whiteSpace=wrap;html=1;aspect=fixed;" parent="1" vertex="1">
          <mxGeometry x="689.5" y="177.5" width="40" height="40" as="geometry" />
        </mxCell>
        <mxCell id="86h3Sp3e8O8lxsLSVH4I-128" value="" style="whiteSpace=wrap;html=1;aspect=fixed;" parent="1" vertex="1">
          <mxGeometry x="810" y="177.5" width="40" height="40" as="geometry" />
        </mxCell>
        <mxCell id="86h3Sp3e8O8lxsLSVH4I-129" value="" style="whiteSpace=wrap;html=1;aspect=fixed;" parent="1" vertex="1">
          <mxGeometry x="810" y="485.5" width="40" height="40" as="geometry" />
        </mxCell>
        <mxCell id="6AizW1ExCWK7U08VrBVz-1" value="" style="shape=curlyBracket;whiteSpace=wrap;html=1;rounded=1;" vertex="1" parent="1">
          <mxGeometry x="309" y="-8.75" width="30" height="130" as="geometry" />
        </mxCell>
        <mxCell id="6AizW1ExCWK7U08VrBVz-3" value="" style="whiteSpace=wrap;html=1;aspect=fixed;fillColor=#ffe6cc;strokeColor=#d79b00;" vertex="1" parent="1">
          <mxGeometry x="346" y="-15" width="10" height="10" as="geometry" />
        </mxCell>
        <mxCell id="6AizW1ExCWK7U08VrBVz-4" value="" style="whiteSpace=wrap;html=1;aspect=fixed;strokeColor=#b85450;fillColor=none;" vertex="1" parent="1">
          <mxGeometry x="341" y="18.75" width="20" height="20" as="geometry" />
        </mxCell>
        <mxCell id="6AizW1ExCWK7U08VrBVz-5" value="" style="whiteSpace=wrap;html=1;aspect=fixed;strokeColor=#82b366;fillColor=none;" vertex="1" parent="1">
          <mxGeometry x="339" y="60" width="30" height="30" as="geometry" />
        </mxCell>
        <mxCell id="6AizW1ExCWK7U08VrBVz-6" value="" style="whiteSpace=wrap;html=1;aspect=fixed;strokeColor=#6c8ebf;fillColor=none;" vertex="1" parent="1">
          <mxGeometry x="339" y="105" width="40" height="40" as="geometry" />
        </mxCell>
        <mxCell id="6AizW1ExCWK7U08VrBVz-7" value="" style="shape=curlyBracket;whiteSpace=wrap;html=1;rounded=1;flipH=1;" vertex="1" parent="1">
          <mxGeometry x="393" y="-10" width="17" height="130" as="geometry" />
        </mxCell>
        <mxCell id="6AizW1ExCWK7U08VrBVz-8" value="" style="verticalLabelPosition=bottom;verticalAlign=top;html=1;shape=mxgraph.basic.rect;fillColor2=none;strokeWidth=1;size=20;indent=5;fillColor=#647687;fontColor=#ffffff;strokeColor=#314354;" vertex="1" parent="1">
          <mxGeometry x="428" y="10.75" width="20" height="102.5" as="geometry" />
        </mxCell>
        <mxCell id="6AizW1ExCWK7U08VrBVz-9" value="" style="endArrow=none;html=1;fillColor=#f5f5f5;" edge="1" parent="1">
          <mxGeometry width="50" height="50" relative="1" as="geometry">
            <mxPoint x="428" y="24.25" as="sourcePoint" />
            <mxPoint x="448" y="24.25" as="targetPoint" />
          </mxGeometry>
        </mxCell>
        <mxCell id="6AizW1ExCWK7U08VrBVz-10" value="" style="endArrow=none;html=1;" edge="1" parent="1">
          <mxGeometry width="50" height="50" relative="1" as="geometry">
            <mxPoint x="428" y="42.25" as="sourcePoint" />
            <mxPoint x="448" y="42.25" as="targetPoint" />
          </mxGeometry>
        </mxCell>
        <mxCell id="6AizW1ExCWK7U08VrBVz-11" value="" style="endArrow=none;html=1;" edge="1" parent="1">
          <mxGeometry width="50" height="50" relative="1" as="geometry">
            <mxPoint x="428" y="68.25" as="sourcePoint" />
            <mxPoint x="448" y="68.25" as="targetPoint" />
          </mxGeometry>
        </mxCell>
        <mxCell id="6AizW1ExCWK7U08VrBVz-12" value="" style="endArrow=none;html=1;exitX=1.052;exitY=0.453;exitDx=0;exitDy=0;exitPerimeter=0;" edge="1" parent="1" source="6AizW1ExCWK7U08VrBVz-8">
          <mxGeometry width="50" height="50" relative="1" as="geometry">
            <mxPoint x="450" y="65" as="sourcePoint" />
            <mxPoint x="660" y="57" as="targetPoint" />
          </mxGeometry>
        </mxCell>
        <mxCell id="6AizW1ExCWK7U08VrBVz-13" value="" style="endArrow=classic;html=1;" edge="1" parent="1">
          <mxGeometry width="50" height="50" relative="1" as="geometry">
            <mxPoint x="660" y="57" as="sourcePoint" />
            <mxPoint x="659.58" y="187" as="targetPoint" />
          </mxGeometry>
        </mxCell>
        <mxCell id="6AizW1ExCWK7U08VrBVz-25" value="" style="endArrow=none;html=1;exitX=1.076;exitY=0.528;exitDx=0;exitDy=0;exitPerimeter=0;" edge="1" parent="1">
          <mxGeometry width="50" height="50" relative="1" as="geometry">
            <mxPoint x="434.5200000000002" y="230.3699999999999" as="sourcePoint" />
            <mxPoint x="468" y="230" as="targetPoint" />
          </mxGeometry>
        </mxCell>
        <mxCell id="6AizW1ExCWK7U08VrBVz-26" value="" style="endArrow=classic;html=1;entryX=0.5;entryY=1;entryDx=0;entryDy=0;" edge="1" parent="1" target="86h3Sp3e8O8lxsLSVH4I-19">
          <mxGeometry width="50" height="50" relative="1" as="geometry">
            <mxPoint x="468" y="230" as="sourcePoint" />
            <mxPoint x="520" y="180" as="targetPoint" />
          </mxGeometry>
        </mxCell>
        <mxCell id="6AizW1ExCWK7U08VrBVz-75" value="" style="endArrow=none;html=1;" edge="1" parent="1">
          <mxGeometry width="50" height="50" relative="1" as="geometry">
            <mxPoint x="430" y="448.25" as="sourcePoint" />
            <mxPoint x="470" y="448" as="targetPoint" />
          </mxGeometry>
        </mxCell>
        <mxCell id="6AizW1ExCWK7U08VrBVz-76" value="" style="endArrow=classic;html=1;" edge="1" parent="1">
          <mxGeometry width="50" height="50" relative="1" as="geometry">
            <mxPoint x="470" y="448.25" as="sourcePoint" />
            <mxPoint x="470" y="499" as="targetPoint" />
          </mxGeometry>
        </mxCell>
        <mxCell id="6AizW1ExCWK7U08VrBVz-77" value="" style="endArrow=classic;html=1;entryX=0.5;entryY=1;entryDx=0;entryDy=0;" edge="1" parent="1">
          <mxGeometry width="50" height="50" relative="1" as="geometry">
            <mxPoint x="483" y="506" as="sourcePoint" />
            <mxPoint x="482.5" y="363.5" as="targetPoint" />
          </mxGeometry>
        </mxCell>
        <mxCell id="6AizW1ExCWK7U08VrBVz-83" value="&lt;span style=&quot;color: rgb(51 , 51 , 51) ; font-family: &amp;#34;pingfang sc&amp;#34; , &amp;#34;lantinghei sc&amp;#34; , &amp;#34;microsoft yahei&amp;#34; , &amp;#34;arial&amp;#34; , , sans-serif , &amp;#34;tahoma&amp;#34; ; font-size: 16px ; background-color: rgb(255 , 255 , 255)&quot;&gt;α&lt;/span&gt;" style="text;html=1;resizable=0;autosize=1;align=center;verticalAlign=middle;points=[];fillColor=none;strokeColor=none;rounded=0;" vertex="1" parent="1">
          <mxGeometry x="190" y="366.5" width="20" height="20" as="geometry" />
        </mxCell>
        <mxCell id="6AizW1ExCWK7U08VrBVz-89" value="" style="whiteSpace=wrap;html=1;aspect=fixed;fillColor=#f8cecc;strokeColor=#b85450;" vertex="1" parent="1">
          <mxGeometry x="357" y="18.75" width="4" height="4" as="geometry" />
        </mxCell>
        <mxCell id="6AizW1ExCWK7U08VrBVz-92" value="" style="whiteSpace=wrap;html=1;aspect=fixed;fillColor=#f8cecc;strokeColor=#b85450;" vertex="1" parent="1">
          <mxGeometry x="341" y="18.75" width="4" height="4" as="geometry" />
        </mxCell>
        <mxCell id="6AizW1ExCWK7U08VrBVz-93" value="" style="whiteSpace=wrap;html=1;aspect=fixed;fillColor=#f8cecc;strokeColor=#b85450;" vertex="1" parent="1">
          <mxGeometry x="341" y="34.75" width="4" height="4" as="geometry" />
        </mxCell>
        <mxCell id="6AizW1ExCWK7U08VrBVz-94" value="" style="whiteSpace=wrap;html=1;aspect=fixed;fillColor=#f8cecc;strokeColor=#b85450;" vertex="1" parent="1">
          <mxGeometry x="357" y="34.75" width="4" height="4" as="geometry" />
        </mxCell>
        <mxCell id="6AizW1ExCWK7U08VrBVz-95" value="" style="whiteSpace=wrap;html=1;aspect=fixed;fillColor=#f8cecc;strokeColor=#b85450;" vertex="1" parent="1">
          <mxGeometry x="357" y="26.75" width="4" height="4" as="geometry" />
        </mxCell>
        <mxCell id="6AizW1ExCWK7U08VrBVz-96" value="" style="whiteSpace=wrap;html=1;aspect=fixed;fillColor=#f8cecc;strokeColor=#b85450;" vertex="1" parent="1">
          <mxGeometry x="341" y="26.75" width="4" height="4" as="geometry" />
        </mxCell>
        <mxCell id="6AizW1ExCWK7U08VrBVz-97" value="" style="whiteSpace=wrap;html=1;aspect=fixed;fillColor=#f8cecc;strokeColor=#b85450;" vertex="1" parent="1">
          <mxGeometry x="349" y="18.75" width="4" height="4" as="geometry" />
        </mxCell>
        <mxCell id="6AizW1ExCWK7U08VrBVz-98" value="" style="whiteSpace=wrap;html=1;aspect=fixed;fillColor=#f8cecc;strokeColor=#b85450;" vertex="1" parent="1">
          <mxGeometry x="349" y="34.75" width="4" height="4" as="geometry" />
        </mxCell>
        <mxCell id="6AizW1ExCWK7U08VrBVz-99" value="" style="whiteSpace=wrap;html=1;aspect=fixed;fillColor=#f8cecc;strokeColor=#b85450;" vertex="1" parent="1">
          <mxGeometry x="349" y="26.75" width="4" height="4" as="geometry" />
        </mxCell>
        <mxCell id="6AizW1ExCWK7U08VrBVz-143" value="" style="whiteSpace=wrap;html=1;aspect=fixed;fillColor=#d5e8d4;strokeColor=#82b366;" vertex="1" parent="1">
          <mxGeometry x="339" y="60" width="4" height="4" as="geometry" />
        </mxCell>
        <mxCell id="6AizW1ExCWK7U08VrBVz-144" value="" style="whiteSpace=wrap;html=1;aspect=fixed;fillColor=#d5e8d4;strokeColor=#82b366;" vertex="1" parent="1">
          <mxGeometry x="352" y="60" width="4" height="4" as="geometry" />
        </mxCell>
        <mxCell id="6AizW1ExCWK7U08VrBVz-145" value="" style="whiteSpace=wrap;html=1;aspect=fixed;fillColor=#d5e8d4;strokeColor=#82b366;" vertex="1" parent="1">
          <mxGeometry x="365" y="60" width="4" height="4" as="geometry" />
        </mxCell>
        <mxCell id="6AizW1ExCWK7U08VrBVz-146" value="" style="whiteSpace=wrap;html=1;aspect=fixed;fillColor=#d5e8d4;strokeColor=#82b366;" vertex="1" parent="1">
          <mxGeometry x="339" y="86" width="4" height="4" as="geometry" />
        </mxCell>
        <mxCell id="6AizW1ExCWK7U08VrBVz-147" value="" style="whiteSpace=wrap;html=1;aspect=fixed;fillColor=#d5e8d4;strokeColor=#82b366;" vertex="1" parent="1">
          <mxGeometry x="352" y="86" width="4" height="4" as="geometry" />
        </mxCell>
        <mxCell id="6AizW1ExCWK7U08VrBVz-148" value="" style="whiteSpace=wrap;html=1;aspect=fixed;fillColor=#d5e8d4;strokeColor=#82b366;" vertex="1" parent="1">
          <mxGeometry x="365" y="86" width="4" height="4" as="geometry" />
        </mxCell>
        <mxCell id="6AizW1ExCWK7U08VrBVz-150" value="" style="whiteSpace=wrap;html=1;aspect=fixed;fillColor=#d5e8d4;strokeColor=#82b366;" vertex="1" parent="1">
          <mxGeometry x="339" y="73.5" width="4" height="4" as="geometry" />
        </mxCell>
        <mxCell id="6AizW1ExCWK7U08VrBVz-151" value="" style="whiteSpace=wrap;html=1;aspect=fixed;fillColor=#d5e8d4;strokeColor=#82b366;" vertex="1" parent="1">
          <mxGeometry x="352" y="73.5" width="4" height="4" as="geometry" />
        </mxCell>
        <mxCell id="6AizW1ExCWK7U08VrBVz-152" value="" style="whiteSpace=wrap;html=1;aspect=fixed;fillColor=#d5e8d4;strokeColor=#82b366;" vertex="1" parent="1">
          <mxGeometry x="365" y="73.5" width="4" height="4" as="geometry" />
        </mxCell>
        <mxCell id="6AizW1ExCWK7U08VrBVz-153" value="" style="whiteSpace=wrap;html=1;aspect=fixed;fillColor=#dae8fc;strokeColor=#6c8ebf;" vertex="1" parent="1">
          <mxGeometry x="339" y="105" width="4" height="4" as="geometry" />
        </mxCell>
        <mxCell id="6AizW1ExCWK7U08VrBVz-154" value="" style="whiteSpace=wrap;html=1;aspect=fixed;fillColor=#dae8fc;strokeColor=#6c8ebf;" vertex="1" parent="1">
          <mxGeometry x="357" y="105" width="4" height="4" as="geometry" />
        </mxCell>
        <mxCell id="6AizW1ExCWK7U08VrBVz-155" value="" style="whiteSpace=wrap;html=1;aspect=fixed;fillColor=#dae8fc;strokeColor=#6c8ebf;" vertex="1" parent="1">
          <mxGeometry x="375" y="105" width="4" height="4" as="geometry" />
        </mxCell>
        <mxCell id="6AizW1ExCWK7U08VrBVz-156" value="" style="whiteSpace=wrap;html=1;aspect=fixed;fillColor=#dae8fc;strokeColor=#6c8ebf;" vertex="1" parent="1">
          <mxGeometry x="339" y="122.5" width="4" height="4" as="geometry" />
        </mxCell>
        <mxCell id="6AizW1ExCWK7U08VrBVz-157" value="" style="whiteSpace=wrap;html=1;aspect=fixed;fillColor=#dae8fc;strokeColor=#6c8ebf;" vertex="1" parent="1">
          <mxGeometry x="357" y="122.5" width="4" height="4" as="geometry" />
        </mxCell>
        <mxCell id="6AizW1ExCWK7U08VrBVz-158" value="" style="whiteSpace=wrap;html=1;aspect=fixed;fillColor=#dae8fc;strokeColor=#6c8ebf;" vertex="1" parent="1">
          <mxGeometry x="375" y="122.5" width="4" height="4" as="geometry" />
        </mxCell>
        <mxCell id="6AizW1ExCWK7U08VrBVz-159" value="" style="whiteSpace=wrap;html=1;aspect=fixed;fillColor=#dae8fc;strokeColor=#6c8ebf;" vertex="1" parent="1">
          <mxGeometry x="339" y="140.5" width="4" height="4" as="geometry" />
        </mxCell>
        <mxCell id="6AizW1ExCWK7U08VrBVz-161" value="" style="whiteSpace=wrap;html=1;aspect=fixed;fillColor=#dae8fc;strokeColor=#6c8ebf;" vertex="1" parent="1">
          <mxGeometry x="357" y="141" width="4" height="4" as="geometry" />
        </mxCell>
        <mxCell id="6AizW1ExCWK7U08VrBVz-162" value="" style="whiteSpace=wrap;html=1;aspect=fixed;fillColor=#dae8fc;strokeColor=#6c8ebf;" vertex="1" parent="1">
          <mxGeometry x="375" y="140.5" width="4" height="4" as="geometry" />
        </mxCell>
        <mxCell id="6AizW1ExCWK7U08VrBVz-163" value="&lt;p style=&quot;line-height: 30%&quot;&gt;&lt;font style=&quot;font-size: 11px&quot;&gt;1*1&lt;/font&gt;&lt;/p&gt;" style="text;html=1;resizable=0;autosize=1;align=center;verticalAlign=middle;points=[];fillColor=none;strokeColor=none;rounded=0;" vertex="1" parent="1">
          <mxGeometry x="335" y="-40" width="30" height="30" as="geometry" />
        </mxCell>
        <mxCell id="6AizW1ExCWK7U08VrBVz-164" value="&lt;p style=&quot;line-height: 30%&quot;&gt;&lt;font style=&quot;font-size: 11px&quot;&gt;3*3&lt;/font&gt;&lt;/p&gt;&lt;span style=&quot;color: rgba(0 , 0 , 0 , 0) ; font-family: monospace ; font-size: 0px&quot;&gt;%3CmxGraphModel%3E%3Croot%3E%3CmxCell%20id%3D%220%22%2F%3E%3CmxCell%20id%3D%221%22%20parent%3D%220%22%2F%3E%3CmxCell%20id%3D%222%22%20value%3D%22%26lt%3Bp%20style%3D%26quot%3Bline-height%3A%2030%25%26quot%3B%26gt%3B%26lt%3Bfont%20style%3D%26quot%3Bfont-size%3A%2011px%26quot%3B%26gt%3B1*1%26lt%3B%2Ffont%26gt%3B%26lt%3B%2Fp%26gt%3B%22%20style%3D%22text%3Bhtml%3D1%3Bresizable%3D0%3Bautosize%3D1%3Balign%3Dcenter%3BverticalAlign%3Dmiddle%3Bpoints%3D%5B%5D%3BfillColor%3Dnone%3BstrokeColor%3Dnone%3Brounded%3D0%3B%22%20vertex%3D%221%22%20parent%3D%221%22%3E%3CmxGeometry%20x%3D%22360%22%20y%3D%227.5%22%20width%3D%2230%22%20height%3D%2230%22%20as%3D%22geometry%22%2F%3E%3C%2FmxCell%3E%3C%2Froot%3E%3C%2FmxGraphModel%3E&lt;/span&gt;" style="text;html=1;resizable=0;autosize=1;align=center;verticalAlign=middle;points=[];fillColor=none;strokeColor=none;rounded=0;" vertex="1" parent="1">
          <mxGeometry x="335" y="-8.75" width="30" height="50" as="geometry" />
        </mxCell>
        <mxCell id="6AizW1ExCWK7U08VrBVz-165" value="&lt;p style=&quot;line-height: 30%&quot;&gt;&lt;span style=&quot;font-size: 11px&quot;&gt;6*6&lt;/span&gt;&lt;/p&gt;" style="text;html=1;resizable=0;autosize=1;align=center;verticalAlign=middle;points=[];fillColor=none;strokeColor=none;rounded=0;" vertex="1" parent="1">
          <mxGeometry x="336" y="34.75" width="30" height="30" as="geometry" />
        </mxCell>
        <mxCell id="6AizW1ExCWK7U08VrBVz-166" value="&lt;p style=&quot;line-height: 30%&quot;&gt;&lt;span style=&quot;font-size: 11px&quot;&gt;8*8&lt;/span&gt;&lt;/p&gt;" style="text;html=1;resizable=0;autosize=1;align=center;verticalAlign=middle;points=[];fillColor=none;strokeColor=none;rounded=0;" vertex="1" parent="1">
          <mxGeometry x="339" y="85" width="30" height="30" as="geometry" />
        </mxCell>
        <mxCell id="6AizW1ExCWK7U08VrBVz-168" value="" style="shape=curlyBracket;whiteSpace=wrap;html=1;rounded=1;" vertex="1" parent="1">
          <mxGeometry x="310" y="393.25" width="30" height="130" as="geometry" />
        </mxCell>
        <mxCell id="6AizW1ExCWK7U08VrBVz-169" value="" style="whiteSpace=wrap;html=1;aspect=fixed;fillColor=#ffe6cc;strokeColor=#d79b00;fontStyle=1" vertex="1" parent="1">
          <mxGeometry x="347" y="387" width="10" height="10" as="geometry" />
        </mxCell>
        <mxCell id="6AizW1ExCWK7U08VrBVz-170" value="" style="whiteSpace=wrap;html=1;aspect=fixed;strokeColor=#b85450;fillColor=none;fontStyle=1" vertex="1" parent="1">
          <mxGeometry x="342" y="420.75" width="20" height="20" as="geometry" />
        </mxCell>
        <mxCell id="6AizW1ExCWK7U08VrBVz-171" value="" style="whiteSpace=wrap;html=1;aspect=fixed;strokeColor=#82b366;fillColor=none;fontStyle=1" vertex="1" parent="1">
          <mxGeometry x="340" y="462" width="30" height="30" as="geometry" />
        </mxCell>
        <mxCell id="6AizW1ExCWK7U08VrBVz-172" value="" style="whiteSpace=wrap;html=1;aspect=fixed;strokeColor=#6c8ebf;fillColor=none;fontStyle=1" vertex="1" parent="1">
          <mxGeometry x="340" y="507" width="40" height="40" as="geometry" />
        </mxCell>
        <mxCell id="6AizW1ExCWK7U08VrBVz-173" value="" style="shape=curlyBracket;whiteSpace=wrap;html=1;rounded=1;flipH=1;fontStyle=1" vertex="1" parent="1">
          <mxGeometry x="394" y="392" width="17" height="130" as="geometry" />
        </mxCell>
        <mxCell id="6AizW1ExCWK7U08VrBVz-174" value="" style="verticalLabelPosition=bottom;verticalAlign=top;html=1;shape=mxgraph.basic.rect;fillColor2=none;strokeWidth=1;size=20;indent=5;fillColor=#647687;fontColor=#ffffff;strokeColor=#314354;fontStyle=1" vertex="1" parent="1">
          <mxGeometry x="429" y="412.75" width="20" height="102.5" as="geometry" />
        </mxCell>
        <mxCell id="6AizW1ExCWK7U08VrBVz-175" value="" style="endArrow=none;html=1;fillColor=#f5f5f5;fontStyle=1" edge="1" parent="1">
          <mxGeometry width="50" height="50" relative="1" as="geometry">
            <mxPoint x="429" y="426.2500000000002" as="sourcePoint" />
            <mxPoint x="449" y="426.2500000000002" as="targetPoint" />
          </mxGeometry>
        </mxCell>
        <mxCell id="6AizW1ExCWK7U08VrBVz-176" value="" style="endArrow=none;html=1;fontStyle=1" edge="1" parent="1">
          <mxGeometry width="50" height="50" relative="1" as="geometry">
            <mxPoint x="429" y="444.25" as="sourcePoint" />
            <mxPoint x="449" y="444.25" as="targetPoint" />
          </mxGeometry>
        </mxCell>
        <mxCell id="6AizW1ExCWK7U08VrBVz-177" value="" style="endArrow=none;html=1;fontStyle=1" edge="1" parent="1">
          <mxGeometry width="50" height="50" relative="1" as="geometry">
            <mxPoint x="429" y="470.25" as="sourcePoint" />
            <mxPoint x="449" y="470.25" as="targetPoint" />
          </mxGeometry>
        </mxCell>
        <mxCell id="6AizW1ExCWK7U08VrBVz-178" value="" style="whiteSpace=wrap;html=1;aspect=fixed;fillColor=#f8cecc;strokeColor=#b85450;fontStyle=1" vertex="1" parent="1">
          <mxGeometry x="358" y="420.75" width="4" height="4" as="geometry" />
        </mxCell>
        <mxCell id="6AizW1ExCWK7U08VrBVz-179" value="" style="whiteSpace=wrap;html=1;aspect=fixed;fillColor=#f8cecc;strokeColor=#b85450;fontStyle=1" vertex="1" parent="1">
          <mxGeometry x="342" y="420.75" width="4" height="4" as="geometry" />
        </mxCell>
        <mxCell id="6AizW1ExCWK7U08VrBVz-180" value="" style="whiteSpace=wrap;html=1;aspect=fixed;fillColor=#f8cecc;strokeColor=#b85450;fontStyle=1" vertex="1" parent="1">
          <mxGeometry x="342" y="436.75" width="4" height="4" as="geometry" />
        </mxCell>
        <mxCell id="6AizW1ExCWK7U08VrBVz-181" value="" style="whiteSpace=wrap;html=1;aspect=fixed;fillColor=#f8cecc;strokeColor=#b85450;fontStyle=1" vertex="1" parent="1">
          <mxGeometry x="358" y="436.75" width="4" height="4" as="geometry" />
        </mxCell>
        <mxCell id="6AizW1ExCWK7U08VrBVz-182" value="" style="whiteSpace=wrap;html=1;aspect=fixed;fillColor=#f8cecc;strokeColor=#b85450;fontStyle=1" vertex="1" parent="1">
          <mxGeometry x="358" y="428.75" width="4" height="4" as="geometry" />
        </mxCell>
        <mxCell id="6AizW1ExCWK7U08VrBVz-183" value="" style="whiteSpace=wrap;html=1;aspect=fixed;fillColor=#f8cecc;strokeColor=#b85450;fontStyle=1" vertex="1" parent="1">
          <mxGeometry x="342" y="428.75" width="4" height="4" as="geometry" />
        </mxCell>
        <mxCell id="6AizW1ExCWK7U08VrBVz-184" value="" style="whiteSpace=wrap;html=1;aspect=fixed;fillColor=#f8cecc;strokeColor=#b85450;fontStyle=1" vertex="1" parent="1">
          <mxGeometry x="350" y="420.75" width="4" height="4" as="geometry" />
        </mxCell>
        <mxCell id="6AizW1ExCWK7U08VrBVz-185" value="" style="whiteSpace=wrap;html=1;aspect=fixed;fillColor=#f8cecc;strokeColor=#b85450;fontStyle=1" vertex="1" parent="1">
          <mxGeometry x="350" y="436.75" width="4" height="4" as="geometry" />
        </mxCell>
        <mxCell id="6AizW1ExCWK7U08VrBVz-186" value="" style="whiteSpace=wrap;html=1;aspect=fixed;fillColor=#f8cecc;strokeColor=#b85450;fontStyle=1" vertex="1" parent="1">
          <mxGeometry x="350" y="428.75" width="4" height="4" as="geometry" />
        </mxCell>
        <mxCell id="6AizW1ExCWK7U08VrBVz-187" value="" style="whiteSpace=wrap;html=1;aspect=fixed;fillColor=#d5e8d4;strokeColor=#82b366;fontStyle=1" vertex="1" parent="1">
          <mxGeometry x="340" y="462" width="4" height="4" as="geometry" />
        </mxCell>
        <mxCell id="6AizW1ExCWK7U08VrBVz-188" value="" style="whiteSpace=wrap;html=1;aspect=fixed;fillColor=#d5e8d4;strokeColor=#82b366;fontStyle=1" vertex="1" parent="1">
          <mxGeometry x="353" y="462" width="4" height="4" as="geometry" />
        </mxCell>
        <mxCell id="6AizW1ExCWK7U08VrBVz-189" value="" style="whiteSpace=wrap;html=1;aspect=fixed;fillColor=#d5e8d4;strokeColor=#82b366;fontStyle=1" vertex="1" parent="1">
          <mxGeometry x="366" y="462" width="4" height="4" as="geometry" />
        </mxCell>
        <mxCell id="6AizW1ExCWK7U08VrBVz-190" value="" style="whiteSpace=wrap;html=1;aspect=fixed;fillColor=#d5e8d4;strokeColor=#82b366;fontStyle=1" vertex="1" parent="1">
          <mxGeometry x="340" y="488" width="4" height="4" as="geometry" />
        </mxCell>
        <mxCell id="6AizW1ExCWK7U08VrBVz-191" value="" style="whiteSpace=wrap;html=1;aspect=fixed;fillColor=#d5e8d4;strokeColor=#82b366;fontStyle=1" vertex="1" parent="1">
          <mxGeometry x="353" y="488" width="4" height="4" as="geometry" />
        </mxCell>
        <mxCell id="6AizW1ExCWK7U08VrBVz-192" value="" style="whiteSpace=wrap;html=1;aspect=fixed;fillColor=#d5e8d4;strokeColor=#82b366;fontStyle=1" vertex="1" parent="1">
          <mxGeometry x="366" y="488" width="4" height="4" as="geometry" />
        </mxCell>
        <mxCell id="6AizW1ExCWK7U08VrBVz-193" value="" style="whiteSpace=wrap;html=1;aspect=fixed;fillColor=#d5e8d4;strokeColor=#82b366;fontStyle=1" vertex="1" parent="1">
          <mxGeometry x="340" y="475.5" width="4" height="4" as="geometry" />
        </mxCell>
        <mxCell id="6AizW1ExCWK7U08VrBVz-194" value="" style="whiteSpace=wrap;html=1;aspect=fixed;fillColor=#d5e8d4;strokeColor=#82b366;fontStyle=1" vertex="1" parent="1">
          <mxGeometry x="353" y="475.5" width="4" height="4" as="geometry" />
        </mxCell>
        <mxCell id="6AizW1ExCWK7U08VrBVz-195" value="" style="whiteSpace=wrap;html=1;aspect=fixed;fillColor=#d5e8d4;strokeColor=#82b366;fontStyle=1" vertex="1" parent="1">
          <mxGeometry x="366" y="475.5" width="4" height="4" as="geometry" />
        </mxCell>
        <mxCell id="6AizW1ExCWK7U08VrBVz-196" value="" style="whiteSpace=wrap;html=1;aspect=fixed;fillColor=#dae8fc;strokeColor=#6c8ebf;fontStyle=1" vertex="1" parent="1">
          <mxGeometry x="340" y="507" width="4" height="4" as="geometry" />
        </mxCell>
        <mxCell id="6AizW1ExCWK7U08VrBVz-197" value="" style="whiteSpace=wrap;html=1;aspect=fixed;fillColor=#dae8fc;strokeColor=#6c8ebf;fontStyle=1" vertex="1" parent="1">
          <mxGeometry x="358" y="507" width="4" height="4" as="geometry" />
        </mxCell>
        <mxCell id="6AizW1ExCWK7U08VrBVz-198" value="" style="whiteSpace=wrap;html=1;aspect=fixed;fillColor=#dae8fc;strokeColor=#6c8ebf;fontStyle=1" vertex="1" parent="1">
          <mxGeometry x="376" y="507" width="4" height="4" as="geometry" />
        </mxCell>
        <mxCell id="6AizW1ExCWK7U08VrBVz-199" value="" style="whiteSpace=wrap;html=1;aspect=fixed;fillColor=#dae8fc;strokeColor=#6c8ebf;fontStyle=1" vertex="1" parent="1">
          <mxGeometry x="340" y="524.5" width="4" height="4" as="geometry" />
        </mxCell>
        <mxCell id="6AizW1ExCWK7U08VrBVz-200" value="" style="whiteSpace=wrap;html=1;aspect=fixed;fillColor=#dae8fc;strokeColor=#6c8ebf;fontStyle=1" vertex="1" parent="1">
          <mxGeometry x="358" y="524.5" width="4" height="4" as="geometry" />
        </mxCell>
        <mxCell id="6AizW1ExCWK7U08VrBVz-201" value="" style="whiteSpace=wrap;html=1;aspect=fixed;fillColor=#dae8fc;strokeColor=#6c8ebf;fontStyle=1" vertex="1" parent="1">
          <mxGeometry x="376" y="524.5" width="4" height="4" as="geometry" />
        </mxCell>
        <mxCell id="6AizW1ExCWK7U08VrBVz-202" value="" style="whiteSpace=wrap;html=1;aspect=fixed;fillColor=#dae8fc;strokeColor=#6c8ebf;fontStyle=1" vertex="1" parent="1">
          <mxGeometry x="340" y="542.5" width="4" height="4" as="geometry" />
        </mxCell>
        <mxCell id="6AizW1ExCWK7U08VrBVz-203" value="" style="whiteSpace=wrap;html=1;aspect=fixed;fillColor=#dae8fc;strokeColor=#6c8ebf;fontStyle=1" vertex="1" parent="1">
          <mxGeometry x="358" y="543" width="4" height="4" as="geometry" />
        </mxCell>
        <mxCell id="6AizW1ExCWK7U08VrBVz-204" value="" style="whiteSpace=wrap;html=1;aspect=fixed;fillColor=#dae8fc;strokeColor=#6c8ebf;fontStyle=1" vertex="1" parent="1">
          <mxGeometry x="376" y="542.5" width="4" height="4" as="geometry" />
        </mxCell>
        <mxCell id="6AizW1ExCWK7U08VrBVz-205" value="&lt;p style=&quot;line-height: 30%&quot;&gt;&lt;font style=&quot;font-size: 11px&quot;&gt;3*3&lt;/font&gt;&lt;/p&gt;&lt;span style=&quot;color: rgba(0 , 0 , 0 , 0) ; font-family: monospace ; font-size: 0px&quot;&gt;%3CmxGraphModel%3E%3Croot%3E%3CmxCell%20id%3D%220%22%2F%3E%3CmxCell%20id%3D%221%22%20parent%3D%220%22%2F%3E%3CmxCell%20id%3D%222%22%20value%3D%22%26lt%3Bp%20style%3D%26quot%3Bline-height%3A%2030%25%26quot%3B%26gt%3B%26lt%3Bfont%20style%3D%26quot%3Bfont-size%3A%2011px%26quot%3B%26gt%3B1*1%26lt%3B%2Ffont%26gt%3B%26lt%3B%2Fp%26gt%3B%22%20style%3D%22text%3Bhtml%3D1%3Bresizable%3D0%3Bautosize%3D1%3Balign%3Dcenter%3BverticalAlign%3Dmiddle%3Bpoints%3D%5B%5D%3BfillColor%3Dnone%3BstrokeColor%3Dnone%3Brounded%3D0%3B%22%20vertex%3D%221%22%20parent%3D%221%22%3E%3CmxGeometry%20x%3D%22360%22%20y%3D%227.5%22%20width%3D%2230%22%20height%3D%2230%22%20as%3D%22geometry%22%2F%3E%3C%2FmxCell%3E%3C%2Froot%3E%3C%2FmxGraphModel%3E&lt;/span&gt;" style="text;html=1;resizable=0;autosize=1;align=center;verticalAlign=middle;points=[];fillColor=none;strokeColor=none;rounded=0;fontStyle=1" vertex="1" parent="1">
          <mxGeometry x="336" y="393.25" width="30" height="50" as="geometry" />
        </mxCell>
        <mxCell id="6AizW1ExCWK7U08VrBVz-206" value="&lt;p style=&quot;line-height: 30%&quot;&gt;&lt;span style=&quot;font-size: 11px&quot;&gt;6*6&lt;/span&gt;&lt;/p&gt;" style="text;html=1;resizable=0;autosize=1;align=center;verticalAlign=middle;points=[];fillColor=none;strokeColor=none;rounded=0;fontStyle=1" vertex="1" parent="1">
          <mxGeometry x="337" y="436.75" width="30" height="30" as="geometry" />
        </mxCell>
        <mxCell id="6AizW1ExCWK7U08VrBVz-207" value="&lt;p style=&quot;line-height: 30%&quot;&gt;&lt;span style=&quot;font-size: 11px&quot;&gt;8*8&lt;/span&gt;&lt;/p&gt;" style="text;html=1;resizable=0;autosize=1;align=center;verticalAlign=middle;points=[];fillColor=none;strokeColor=none;rounded=0;fontStyle=1" vertex="1" parent="1">
          <mxGeometry x="340" y="487" width="30" height="30" as="geometry" />
        </mxCell>
        <mxCell id="6AizW1ExCWK7U08VrBVz-208" value="" style="whiteSpace=wrap;html=1;aspect=fixed;fillColor=#ffe6cc;strokeColor=#d79b00;" vertex="1" parent="1">
          <mxGeometry x="348" y="562" width="10" height="10" as="geometry" />
        </mxCell>
        <mxCell id="6AizW1ExCWK7U08VrBVz-209" value="" style="whiteSpace=wrap;html=1;aspect=fixed;strokeColor=#b85450;fillColor=none;" vertex="1" parent="1">
          <mxGeometry x="343" y="595.75" width="20" height="20" as="geometry" />
        </mxCell>
        <mxCell id="6AizW1ExCWK7U08VrBVz-210" value="" style="whiteSpace=wrap;html=1;aspect=fixed;strokeColor=#82b366;fillColor=none;" vertex="1" parent="1">
          <mxGeometry x="341" y="637" width="30" height="30" as="geometry" />
        </mxCell>
        <mxCell id="6AizW1ExCWK7U08VrBVz-211" value="" style="whiteSpace=wrap;html=1;aspect=fixed;strokeColor=#6c8ebf;fillColor=none;" vertex="1" parent="1">
          <mxGeometry x="341" y="682" width="40" height="40" as="geometry" />
        </mxCell>
        <mxCell id="6AizW1ExCWK7U08VrBVz-212" value="" style="shape=curlyBracket;whiteSpace=wrap;html=1;rounded=1;flipH=1;" vertex="1" parent="1">
          <mxGeometry x="395" y="567" width="17" height="130" as="geometry" />
        </mxCell>
        <mxCell id="6AizW1ExCWK7U08VrBVz-213" value="" style="verticalLabelPosition=bottom;verticalAlign=top;html=1;shape=mxgraph.basic.rect;fillColor2=none;strokeWidth=1;size=20;indent=5;fillColor=#647687;fontColor=#ffffff;strokeColor=#314354;" vertex="1" parent="1">
          <mxGeometry x="430" y="587.75" width="20" height="102.5" as="geometry" />
        </mxCell>
        <mxCell id="6AizW1ExCWK7U08VrBVz-214" value="" style="endArrow=none;html=1;fillColor=#f5f5f5;" edge="1" parent="1">
          <mxGeometry width="50" height="50" relative="1" as="geometry">
            <mxPoint x="430" y="601.25" as="sourcePoint" />
            <mxPoint x="450" y="601.25" as="targetPoint" />
          </mxGeometry>
        </mxCell>
        <mxCell id="6AizW1ExCWK7U08VrBVz-215" value="" style="endArrow=none;html=1;" edge="1" parent="1">
          <mxGeometry width="50" height="50" relative="1" as="geometry">
            <mxPoint x="430" y="619.25" as="sourcePoint" />
            <mxPoint x="450" y="619.25" as="targetPoint" />
          </mxGeometry>
        </mxCell>
        <mxCell id="6AizW1ExCWK7U08VrBVz-216" value="" style="endArrow=none;html=1;" edge="1" parent="1">
          <mxGeometry width="50" height="50" relative="1" as="geometry">
            <mxPoint x="430" y="645.25" as="sourcePoint" />
            <mxPoint x="450" y="645.25" as="targetPoint" />
          </mxGeometry>
        </mxCell>
        <mxCell id="6AizW1ExCWK7U08VrBVz-217" value="" style="whiteSpace=wrap;html=1;aspect=fixed;fillColor=#f8cecc;strokeColor=#b85450;" vertex="1" parent="1">
          <mxGeometry x="359" y="595.75" width="4" height="4" as="geometry" />
        </mxCell>
        <mxCell id="6AizW1ExCWK7U08VrBVz-218" value="" style="whiteSpace=wrap;html=1;aspect=fixed;fillColor=#f8cecc;strokeColor=#b85450;" vertex="1" parent="1">
          <mxGeometry x="343" y="595.75" width="4" height="4" as="geometry" />
        </mxCell>
        <mxCell id="6AizW1ExCWK7U08VrBVz-219" value="" style="whiteSpace=wrap;html=1;aspect=fixed;fillColor=#f8cecc;strokeColor=#b85450;" vertex="1" parent="1">
          <mxGeometry x="343" y="611.75" width="4" height="4" as="geometry" />
        </mxCell>
        <mxCell id="6AizW1ExCWK7U08VrBVz-220" value="" style="whiteSpace=wrap;html=1;aspect=fixed;fillColor=#f8cecc;strokeColor=#b85450;" vertex="1" parent="1">
          <mxGeometry x="359" y="611.75" width="4" height="4" as="geometry" />
        </mxCell>
        <mxCell id="6AizW1ExCWK7U08VrBVz-221" value="" style="whiteSpace=wrap;html=1;aspect=fixed;fillColor=#f8cecc;strokeColor=#b85450;" vertex="1" parent="1">
          <mxGeometry x="359" y="603.75" width="4" height="4" as="geometry" />
        </mxCell>
        <mxCell id="6AizW1ExCWK7U08VrBVz-222" value="" style="whiteSpace=wrap;html=1;aspect=fixed;fillColor=#f8cecc;strokeColor=#b85450;" vertex="1" parent="1">
          <mxGeometry x="343" y="603.75" width="4" height="4" as="geometry" />
        </mxCell>
        <mxCell id="6AizW1ExCWK7U08VrBVz-223" value="" style="whiteSpace=wrap;html=1;aspect=fixed;fillColor=#f8cecc;strokeColor=#b85450;" vertex="1" parent="1">
          <mxGeometry x="351" y="595.75" width="4" height="4" as="geometry" />
        </mxCell>
        <mxCell id="6AizW1ExCWK7U08VrBVz-224" value="" style="whiteSpace=wrap;html=1;aspect=fixed;fillColor=#f8cecc;strokeColor=#b85450;" vertex="1" parent="1">
          <mxGeometry x="351" y="611.75" width="4" height="4" as="geometry" />
        </mxCell>
        <mxCell id="6AizW1ExCWK7U08VrBVz-225" value="" style="whiteSpace=wrap;html=1;aspect=fixed;fillColor=#f8cecc;strokeColor=#b85450;" vertex="1" parent="1">
          <mxGeometry x="351" y="603.75" width="4" height="4" as="geometry" />
        </mxCell>
        <mxCell id="6AizW1ExCWK7U08VrBVz-226" value="" style="whiteSpace=wrap;html=1;aspect=fixed;fillColor=#d5e8d4;strokeColor=#82b366;" vertex="1" parent="1">
          <mxGeometry x="341" y="637" width="4" height="4" as="geometry" />
        </mxCell>
        <mxCell id="6AizW1ExCWK7U08VrBVz-227" value="" style="whiteSpace=wrap;html=1;aspect=fixed;fillColor=#d5e8d4;strokeColor=#82b366;" vertex="1" parent="1">
          <mxGeometry x="354" y="637" width="4" height="4" as="geometry" />
        </mxCell>
        <mxCell id="6AizW1ExCWK7U08VrBVz-228" value="" style="whiteSpace=wrap;html=1;aspect=fixed;fillColor=#d5e8d4;strokeColor=#82b366;" vertex="1" parent="1">
          <mxGeometry x="367" y="637" width="4" height="4" as="geometry" />
        </mxCell>
        <mxCell id="6AizW1ExCWK7U08VrBVz-229" value="" style="whiteSpace=wrap;html=1;aspect=fixed;fillColor=#d5e8d4;strokeColor=#82b366;" vertex="1" parent="1">
          <mxGeometry x="341" y="663" width="4" height="4" as="geometry" />
        </mxCell>
        <mxCell id="6AizW1ExCWK7U08VrBVz-230" value="" style="whiteSpace=wrap;html=1;aspect=fixed;fillColor=#d5e8d4;strokeColor=#82b366;" vertex="1" parent="1">
          <mxGeometry x="354" y="663" width="4" height="4" as="geometry" />
        </mxCell>
        <mxCell id="6AizW1ExCWK7U08VrBVz-231" value="" style="whiteSpace=wrap;html=1;aspect=fixed;fillColor=#d5e8d4;strokeColor=#82b366;" vertex="1" parent="1">
          <mxGeometry x="367" y="663" width="4" height="4" as="geometry" />
        </mxCell>
        <mxCell id="6AizW1ExCWK7U08VrBVz-232" value="" style="whiteSpace=wrap;html=1;aspect=fixed;fillColor=#d5e8d4;strokeColor=#82b366;" vertex="1" parent="1">
          <mxGeometry x="341" y="650.5" width="4" height="4" as="geometry" />
        </mxCell>
        <mxCell id="6AizW1ExCWK7U08VrBVz-233" value="" style="whiteSpace=wrap;html=1;aspect=fixed;fillColor=#d5e8d4;strokeColor=#82b366;" vertex="1" parent="1">
          <mxGeometry x="354" y="650.5" width="4" height="4" as="geometry" />
        </mxCell>
        <mxCell id="6AizW1ExCWK7U08VrBVz-234" value="" style="whiteSpace=wrap;html=1;aspect=fixed;fillColor=#d5e8d4;strokeColor=#82b366;" vertex="1" parent="1">
          <mxGeometry x="367" y="650.5" width="4" height="4" as="geometry" />
        </mxCell>
        <mxCell id="6AizW1ExCWK7U08VrBVz-235" value="" style="whiteSpace=wrap;html=1;aspect=fixed;fillColor=#dae8fc;strokeColor=#6c8ebf;" vertex="1" parent="1">
          <mxGeometry x="341" y="682" width="4" height="4" as="geometry" />
        </mxCell>
        <mxCell id="6AizW1ExCWK7U08VrBVz-236" value="" style="whiteSpace=wrap;html=1;aspect=fixed;fillColor=#dae8fc;strokeColor=#6c8ebf;" vertex="1" parent="1">
          <mxGeometry x="359" y="682" width="4" height="4" as="geometry" />
        </mxCell>
        <mxCell id="6AizW1ExCWK7U08VrBVz-237" value="" style="whiteSpace=wrap;html=1;aspect=fixed;fillColor=#dae8fc;strokeColor=#6c8ebf;" vertex="1" parent="1">
          <mxGeometry x="377" y="682" width="4" height="4" as="geometry" />
        </mxCell>
        <mxCell id="6AizW1ExCWK7U08VrBVz-238" value="" style="whiteSpace=wrap;html=1;aspect=fixed;fillColor=#dae8fc;strokeColor=#6c8ebf;" vertex="1" parent="1">
          <mxGeometry x="341" y="699.5" width="4" height="4" as="geometry" />
        </mxCell>
        <mxCell id="6AizW1ExCWK7U08VrBVz-239" value="" style="whiteSpace=wrap;html=1;aspect=fixed;fillColor=#dae8fc;strokeColor=#6c8ebf;" vertex="1" parent="1">
          <mxGeometry x="359" y="699.5" width="4" height="4" as="geometry" />
        </mxCell>
        <mxCell id="6AizW1ExCWK7U08VrBVz-240" value="" style="whiteSpace=wrap;html=1;aspect=fixed;fillColor=#dae8fc;strokeColor=#6c8ebf;" vertex="1" parent="1">
          <mxGeometry x="377" y="699.5" width="4" height="4" as="geometry" />
        </mxCell>
        <mxCell id="6AizW1ExCWK7U08VrBVz-241" value="" style="whiteSpace=wrap;html=1;aspect=fixed;fillColor=#dae8fc;strokeColor=#6c8ebf;" vertex="1" parent="1">
          <mxGeometry x="341" y="717.5" width="4" height="4" as="geometry" />
        </mxCell>
        <mxCell id="6AizW1ExCWK7U08VrBVz-242" value="" style="whiteSpace=wrap;html=1;aspect=fixed;fillColor=#dae8fc;strokeColor=#6c8ebf;" vertex="1" parent="1">
          <mxGeometry x="359" y="718" width="4" height="4" as="geometry" />
        </mxCell>
        <mxCell id="6AizW1ExCWK7U08VrBVz-243" value="" style="whiteSpace=wrap;html=1;aspect=fixed;fillColor=#dae8fc;strokeColor=#6c8ebf;" vertex="1" parent="1">
          <mxGeometry x="377" y="717.5" width="4" height="4" as="geometry" />
        </mxCell>
        <mxCell id="6AizW1ExCWK7U08VrBVz-244" value="&lt;p style=&quot;line-height: 30%&quot;&gt;&lt;font style=&quot;font-size: 11px&quot;&gt;3*3&lt;/font&gt;&lt;/p&gt;&lt;span style=&quot;color: rgba(0 , 0 , 0 , 0) ; font-family: monospace ; font-size: 0px&quot;&gt;%3CmxGraphModel%3E%3Croot%3E%3CmxCell%20id%3D%220%22%2F%3E%3CmxCell%20id%3D%221%22%20parent%3D%220%22%2F%3E%3CmxCell%20id%3D%222%22%20value%3D%22%26lt%3Bp%20style%3D%26quot%3Bline-height%3A%2030%25%26quot%3B%26gt%3B%26lt%3Bfont%20style%3D%26quot%3Bfont-size%3A%2011px%26quot%3B%26gt%3B1*1%26lt%3B%2Ffont%26gt%3B%26lt%3B%2Fp%26gt%3B%22%20style%3D%22text%3Bhtml%3D1%3Bresizable%3D0%3Bautosize%3D1%3Balign%3Dcenter%3BverticalAlign%3Dmiddle%3Bpoints%3D%5B%5D%3BfillColor%3Dnone%3BstrokeColor%3Dnone%3Brounded%3D0%3B%22%20vertex%3D%221%22%20parent%3D%221%22%3E%3CmxGeometry%20x%3D%22360%22%20y%3D%227.5%22%20width%3D%2230%22%20height%3D%2230%22%20as%3D%22geometry%22%2F%3E%3C%2FmxCell%3E%3C%2Froot%3E%3C%2FmxGraphModel%3E&lt;/span&gt;" style="text;html=1;resizable=0;autosize=1;align=center;verticalAlign=middle;points=[];fillColor=none;strokeColor=none;rounded=0;" vertex="1" parent="1">
          <mxGeometry x="337" y="568.25" width="30" height="50" as="geometry" />
        </mxCell>
        <mxCell id="6AizW1ExCWK7U08VrBVz-245" value="&lt;p style=&quot;line-height: 30%&quot;&gt;&lt;span style=&quot;font-size: 11px&quot;&gt;6*6&lt;/span&gt;&lt;/p&gt;" style="text;html=1;resizable=0;autosize=1;align=center;verticalAlign=middle;points=[];fillColor=none;strokeColor=none;rounded=0;" vertex="1" parent="1">
          <mxGeometry x="338" y="611.75" width="30" height="30" as="geometry" />
        </mxCell>
        <mxCell id="6AizW1ExCWK7U08VrBVz-246" value="&lt;p style=&quot;line-height: 30%&quot;&gt;&lt;span style=&quot;font-size: 11px&quot;&gt;8*8&lt;/span&gt;&lt;/p&gt;" style="text;html=1;resizable=0;autosize=1;align=center;verticalAlign=middle;points=[];fillColor=none;strokeColor=none;rounded=0;" vertex="1" parent="1">
          <mxGeometry x="341" y="662" width="30" height="30" as="geometry" />
        </mxCell>
        <mxCell id="6AizW1ExCWK7U08VrBVz-247" value="" style="shape=curlyBracket;whiteSpace=wrap;html=1;rounded=1;" vertex="1" parent="1">
          <mxGeometry x="311" y="567" width="30" height="130" as="geometry" />
        </mxCell>
        <mxCell id="6AizW1ExCWK7U08VrBVz-251" value="" style="shape=curlyBracket;whiteSpace=wrap;html=1;rounded=1;" vertex="1" parent="1">
          <mxGeometry x="309" y="175.5" width="30" height="130" as="geometry" />
        </mxCell>
        <mxCell id="6AizW1ExCWK7U08VrBVz-252" value="" style="whiteSpace=wrap;html=1;aspect=fixed;fillColor=#ffe6cc;strokeColor=#d79b00;" vertex="1" parent="1">
          <mxGeometry x="348" y="168" width="10" height="10" as="geometry" />
        </mxCell>
        <mxCell id="6AizW1ExCWK7U08VrBVz-253" value="" style="whiteSpace=wrap;html=1;aspect=fixed;strokeColor=#b85450;fillColor=none;" vertex="1" parent="1">
          <mxGeometry x="343" y="201.75" width="20" height="20" as="geometry" />
        </mxCell>
        <mxCell id="6AizW1ExCWK7U08VrBVz-254" value="" style="whiteSpace=wrap;html=1;aspect=fixed;strokeColor=#82b366;fillColor=none;" vertex="1" parent="1">
          <mxGeometry x="341" y="243" width="30" height="30" as="geometry" />
        </mxCell>
        <mxCell id="6AizW1ExCWK7U08VrBVz-255" value="" style="whiteSpace=wrap;html=1;aspect=fixed;strokeColor=#6c8ebf;fillColor=none;" vertex="1" parent="1">
          <mxGeometry x="341" y="288" width="40" height="40" as="geometry" />
        </mxCell>
        <mxCell id="6AizW1ExCWK7U08VrBVz-256" value="" style="shape=curlyBracket;whiteSpace=wrap;html=1;rounded=1;flipH=1;" vertex="1" parent="1">
          <mxGeometry x="395" y="173" width="17" height="130" as="geometry" />
        </mxCell>
        <mxCell id="6AizW1ExCWK7U08VrBVz-257" value="" style="verticalLabelPosition=bottom;verticalAlign=top;html=1;shape=mxgraph.basic.rect;fillColor2=none;strokeWidth=1;size=20;indent=5;fillColor=#647687;fontColor=#ffffff;strokeColor=#314354;" vertex="1" parent="1">
          <mxGeometry x="430" y="193.75" width="20" height="102.5" as="geometry" />
        </mxCell>
        <mxCell id="6AizW1ExCWK7U08VrBVz-258" value="" style="endArrow=none;html=1;fillColor=#f5f5f5;" edge="1" parent="1">
          <mxGeometry width="50" height="50" relative="1" as="geometry">
            <mxPoint x="430" y="207.25000000000023" as="sourcePoint" />
            <mxPoint x="450" y="207.25000000000023" as="targetPoint" />
          </mxGeometry>
        </mxCell>
        <mxCell id="6AizW1ExCWK7U08VrBVz-259" value="" style="endArrow=none;html=1;" edge="1" parent="1">
          <mxGeometry width="50" height="50" relative="1" as="geometry">
            <mxPoint x="430" y="225.25" as="sourcePoint" />
            <mxPoint x="450" y="225.25" as="targetPoint" />
          </mxGeometry>
        </mxCell>
        <mxCell id="6AizW1ExCWK7U08VrBVz-260" value="" style="endArrow=none;html=1;" edge="1" parent="1">
          <mxGeometry width="50" height="50" relative="1" as="geometry">
            <mxPoint x="430" y="251.25" as="sourcePoint" />
            <mxPoint x="450" y="251.25" as="targetPoint" />
          </mxGeometry>
        </mxCell>
        <mxCell id="6AizW1ExCWK7U08VrBVz-261" value="" style="whiteSpace=wrap;html=1;aspect=fixed;fillColor=#f8cecc;strokeColor=#b85450;" vertex="1" parent="1">
          <mxGeometry x="359" y="201.75" width="4" height="4" as="geometry" />
        </mxCell>
        <mxCell id="6AizW1ExCWK7U08VrBVz-262" value="" style="whiteSpace=wrap;html=1;aspect=fixed;fillColor=#f8cecc;strokeColor=#b85450;" vertex="1" parent="1">
          <mxGeometry x="343" y="201.75" width="4" height="4" as="geometry" />
        </mxCell>
        <mxCell id="6AizW1ExCWK7U08VrBVz-263" value="" style="whiteSpace=wrap;html=1;aspect=fixed;fillColor=#f8cecc;strokeColor=#b85450;" vertex="1" parent="1">
          <mxGeometry x="343" y="217.75" width="4" height="4" as="geometry" />
        </mxCell>
        <mxCell id="6AizW1ExCWK7U08VrBVz-264" value="" style="whiteSpace=wrap;html=1;aspect=fixed;fillColor=#f8cecc;strokeColor=#b85450;" vertex="1" parent="1">
          <mxGeometry x="359" y="217.75" width="4" height="4" as="geometry" />
        </mxCell>
        <mxCell id="6AizW1ExCWK7U08VrBVz-265" value="" style="whiteSpace=wrap;html=1;aspect=fixed;fillColor=#f8cecc;strokeColor=#b85450;" vertex="1" parent="1">
          <mxGeometry x="359" y="209.75" width="4" height="4" as="geometry" />
        </mxCell>
        <mxCell id="6AizW1ExCWK7U08VrBVz-266" value="" style="whiteSpace=wrap;html=1;aspect=fixed;fillColor=#f8cecc;strokeColor=#b85450;" vertex="1" parent="1">
          <mxGeometry x="343" y="209.75" width="4" height="4" as="geometry" />
        </mxCell>
        <mxCell id="6AizW1ExCWK7U08VrBVz-267" value="" style="whiteSpace=wrap;html=1;aspect=fixed;fillColor=#f8cecc;strokeColor=#b85450;" vertex="1" parent="1">
          <mxGeometry x="351" y="201.75" width="4" height="4" as="geometry" />
        </mxCell>
        <mxCell id="6AizW1ExCWK7U08VrBVz-268" value="" style="whiteSpace=wrap;html=1;aspect=fixed;fillColor=#f8cecc;strokeColor=#b85450;" vertex="1" parent="1">
          <mxGeometry x="351" y="217.75" width="4" height="4" as="geometry" />
        </mxCell>
        <mxCell id="6AizW1ExCWK7U08VrBVz-269" value="" style="whiteSpace=wrap;html=1;aspect=fixed;fillColor=#f8cecc;strokeColor=#b85450;" vertex="1" parent="1">
          <mxGeometry x="351" y="209.75" width="4" height="4" as="geometry" />
        </mxCell>
        <mxCell id="6AizW1ExCWK7U08VrBVz-270" value="" style="whiteSpace=wrap;html=1;aspect=fixed;fillColor=#d5e8d4;strokeColor=#82b366;" vertex="1" parent="1">
          <mxGeometry x="341" y="243" width="4" height="4" as="geometry" />
        </mxCell>
        <mxCell id="6AizW1ExCWK7U08VrBVz-271" value="" style="whiteSpace=wrap;html=1;aspect=fixed;fillColor=#d5e8d4;strokeColor=#82b366;" vertex="1" parent="1">
          <mxGeometry x="354" y="243" width="4" height="4" as="geometry" />
        </mxCell>
        <mxCell id="6AizW1ExCWK7U08VrBVz-272" value="" style="whiteSpace=wrap;html=1;aspect=fixed;fillColor=#d5e8d4;strokeColor=#82b366;" vertex="1" parent="1">
          <mxGeometry x="367" y="243" width="4" height="4" as="geometry" />
        </mxCell>
        <mxCell id="6AizW1ExCWK7U08VrBVz-273" value="" style="whiteSpace=wrap;html=1;aspect=fixed;fillColor=#d5e8d4;strokeColor=#82b366;" vertex="1" parent="1">
          <mxGeometry x="341" y="269" width="4" height="4" as="geometry" />
        </mxCell>
        <mxCell id="6AizW1ExCWK7U08VrBVz-274" value="" style="whiteSpace=wrap;html=1;aspect=fixed;fillColor=#d5e8d4;strokeColor=#82b366;" vertex="1" parent="1">
          <mxGeometry x="354" y="269" width="4" height="4" as="geometry" />
        </mxCell>
        <mxCell id="6AizW1ExCWK7U08VrBVz-275" value="" style="whiteSpace=wrap;html=1;aspect=fixed;fillColor=#d5e8d4;strokeColor=#82b366;" vertex="1" parent="1">
          <mxGeometry x="367" y="269" width="4" height="4" as="geometry" />
        </mxCell>
        <mxCell id="6AizW1ExCWK7U08VrBVz-276" value="" style="whiteSpace=wrap;html=1;aspect=fixed;fillColor=#d5e8d4;strokeColor=#82b366;" vertex="1" parent="1">
          <mxGeometry x="341" y="256.5" width="4" height="4" as="geometry" />
        </mxCell>
        <mxCell id="6AizW1ExCWK7U08VrBVz-277" value="" style="whiteSpace=wrap;html=1;aspect=fixed;fillColor=#d5e8d4;strokeColor=#82b366;" vertex="1" parent="1">
          <mxGeometry x="354" y="256.5" width="4" height="4" as="geometry" />
        </mxCell>
        <mxCell id="6AizW1ExCWK7U08VrBVz-278" value="" style="whiteSpace=wrap;html=1;aspect=fixed;fillColor=#d5e8d4;strokeColor=#82b366;" vertex="1" parent="1">
          <mxGeometry x="367" y="256.5" width="4" height="4" as="geometry" />
        </mxCell>
        <mxCell id="6AizW1ExCWK7U08VrBVz-279" value="" style="whiteSpace=wrap;html=1;aspect=fixed;fillColor=#dae8fc;strokeColor=#6c8ebf;" vertex="1" parent="1">
          <mxGeometry x="341" y="288" width="4" height="4" as="geometry" />
        </mxCell>
        <mxCell id="6AizW1ExCWK7U08VrBVz-280" value="" style="whiteSpace=wrap;html=1;aspect=fixed;fillColor=#dae8fc;strokeColor=#6c8ebf;" vertex="1" parent="1">
          <mxGeometry x="359" y="288" width="4" height="4" as="geometry" />
        </mxCell>
        <mxCell id="6AizW1ExCWK7U08VrBVz-281" value="" style="whiteSpace=wrap;html=1;aspect=fixed;fillColor=#dae8fc;strokeColor=#6c8ebf;" vertex="1" parent="1">
          <mxGeometry x="377" y="288" width="4" height="4" as="geometry" />
        </mxCell>
        <mxCell id="6AizW1ExCWK7U08VrBVz-282" value="" style="whiteSpace=wrap;html=1;aspect=fixed;fillColor=#dae8fc;strokeColor=#6c8ebf;" vertex="1" parent="1">
          <mxGeometry x="341" y="305.5" width="4" height="4" as="geometry" />
        </mxCell>
        <mxCell id="6AizW1ExCWK7U08VrBVz-283" value="" style="whiteSpace=wrap;html=1;aspect=fixed;fillColor=#dae8fc;strokeColor=#6c8ebf;" vertex="1" parent="1">
          <mxGeometry x="359" y="305.5" width="4" height="4" as="geometry" />
        </mxCell>
        <mxCell id="6AizW1ExCWK7U08VrBVz-284" value="" style="whiteSpace=wrap;html=1;aspect=fixed;fillColor=#dae8fc;strokeColor=#6c8ebf;" vertex="1" parent="1">
          <mxGeometry x="377" y="305.5" width="4" height="4" as="geometry" />
        </mxCell>
        <mxCell id="6AizW1ExCWK7U08VrBVz-288" value="&lt;p style=&quot;line-height: 30%&quot;&gt;&lt;font style=&quot;font-size: 11px&quot;&gt;3*3&lt;/font&gt;&lt;/p&gt;&lt;span style=&quot;color: rgba(0 , 0 , 0 , 0) ; font-family: monospace ; font-size: 0px&quot;&gt;%3CmxGraphModel%3E%3Croot%3E%3CmxCell%20id%3D%220%22%2F%3E%3CmxCell%20id%3D%221%22%20parent%3D%220%22%2F%3E%3CmxCell%20id%3D%222%22%20value%3D%22%26lt%3Bp%20style%3D%26quot%3Bline-height%3A%2030%25%26quot%3B%26gt%3B%26lt%3Bfont%20style%3D%26quot%3Bfont-size%3A%2011px%26quot%3B%26gt%3B1*1%26lt%3B%2Ffont%26gt%3B%26lt%3B%2Fp%26gt%3B%22%20style%3D%22text%3Bhtml%3D1%3Bresizable%3D0%3Bautosize%3D1%3Balign%3Dcenter%3BverticalAlign%3Dmiddle%3Bpoints%3D%5B%5D%3BfillColor%3Dnone%3BstrokeColor%3Dnone%3Brounded%3D0%3B%22%20vertex%3D%221%22%20parent%3D%221%22%3E%3CmxGeometry%20x%3D%22360%22%20y%3D%227.5%22%20width%3D%2230%22%20height%3D%2230%22%20as%3D%22geometry%22%2F%3E%3C%2FmxCell%3E%3C%2Froot%3E%3C%2FmxGraphModel%3E&lt;/span&gt;" style="text;html=1;resizable=0;autosize=1;align=center;verticalAlign=middle;points=[];fillColor=none;strokeColor=none;rounded=0;" vertex="1" parent="1">
          <mxGeometry x="337" y="174.25" width="30" height="50" as="geometry" />
        </mxCell>
        <mxCell id="6AizW1ExCWK7U08VrBVz-289" value="&lt;p style=&quot;line-height: 30%&quot;&gt;&lt;span style=&quot;font-size: 11px&quot;&gt;6*6&lt;/span&gt;&lt;/p&gt;" style="text;html=1;resizable=0;autosize=1;align=center;verticalAlign=middle;points=[];fillColor=none;strokeColor=none;rounded=0;" vertex="1" parent="1">
          <mxGeometry x="338" y="217.75" width="30" height="30" as="geometry" />
        </mxCell>
        <mxCell id="6AizW1ExCWK7U08VrBVz-290" value="&lt;p style=&quot;line-height: 30%&quot;&gt;&lt;span style=&quot;font-size: 11px&quot;&gt;8*8&lt;/span&gt;&lt;/p&gt;" style="text;html=1;resizable=0;autosize=1;align=center;verticalAlign=middle;points=[];fillColor=none;strokeColor=none;rounded=0;" vertex="1" parent="1">
          <mxGeometry x="341" y="268" width="30" height="30" as="geometry" />
        </mxCell>
        <mxCell id="6AizW1ExCWK7U08VrBVz-291" value="" style="whiteSpace=wrap;html=1;aspect=fixed;fillColor=#dae8fc;strokeColor=#6c8ebf;" vertex="1" parent="1">
          <mxGeometry x="341" y="305.5" width="4" height="4" as="geometry" />
        </mxCell>
        <mxCell id="6AizW1ExCWK7U08VrBVz-292" value="" style="whiteSpace=wrap;html=1;aspect=fixed;fillColor=#dae8fc;strokeColor=#6c8ebf;" vertex="1" parent="1">
          <mxGeometry x="359" y="323.5" width="4" height="4" as="geometry" />
        </mxCell>
        <mxCell id="6AizW1ExCWK7U08VrBVz-293" value="" style="whiteSpace=wrap;html=1;aspect=fixed;fillColor=#dae8fc;strokeColor=#6c8ebf;" vertex="1" parent="1">
          <mxGeometry x="377" y="323.5" width="4" height="4" as="geometry" />
        </mxCell>
        <mxCell id="6AizW1ExCWK7U08VrBVz-294" value="" style="whiteSpace=wrap;html=1;aspect=fixed;fillColor=#dae8fc;strokeColor=#6c8ebf;" vertex="1" parent="1">
          <mxGeometry x="341" y="323.5" width="4" height="4" as="geometry" />
        </mxCell>
        <mxCell id="6AizW1ExCWK7U08VrBVz-295" value="&lt;p style=&quot;line-height: 30%&quot;&gt;&lt;font style=&quot;font-size: 11px&quot;&gt;1*1&lt;/font&gt;&lt;/p&gt;" style="text;html=1;resizable=0;autosize=1;align=center;verticalAlign=middle;points=[];fillColor=none;strokeColor=none;rounded=0;" vertex="1" parent="1">
          <mxGeometry x="337" y="144.5" width="30" height="30" as="geometry" />
        </mxCell>
      </root>
    </mxGraphModel>
  </diagram>
</mxfile>
